<?xml version="1.0" standalone="no"?>
<!DOCTYPE svg PUBLIC "-//W3C//DTD SVG 20010904//EN"
 "http://www.w3.org/TR/2001/REC-SVG-20010904/DTD/svg10.dtd">
<svg version="1.0" xmlns="http://www.w3.org/2000/svg"
 width="512.000000pt" height="512.000000pt" viewBox="0 0 512.000000 512.000000"
 preserveAspectRatio="xMidYMid meet">
<metadata>
Created by potrace 1.14, written by Peter Selinger 2001-2017
</metadata>
<g transform="translate(0.000000,512.000000) scale(0.100000,-0.100000)"
fill="#000000" stroke="none">
<path d="M0 2560 l0 -2560 2560 0 2560 0 0 2560 0 2560 -2560 0 -2560 0 0
-2560z m2960 1236 c0 -2 -8 -10 -17 -17 -16 -13 -17 -12 -4 4 13 16 21 21 21
13z m-399 -47 c65 -31 161 -90 182 -111 10 -10 22 -16 28 -13 5 4 9 0 9 -7 0
-18 140 -159 151 -152 5 3 6 -3 2 -13 -3 -10 -2 -15 2 -11 5 5 13 -2 19 -14 6
-13 20 -27 31 -33 11 -6 36 -25 55 -43 19 -17 40 -32 47 -32 7 0 13 -4 13 -9
0 -5 15 -14 33 -22 17 -7 34 -16 37 -20 6 -8 136 -49 156 -49 8 0 14 4 14 9 0
4 -26 13 -57 20 -32 6 -82 23 -111 38 -123 62 -246 215 -223 276 6 15 14 27
19 27 4 0 33 -25 62 -55 30 -30 61 -53 67 -50 7 2 12 0 10 -5 -3 -13 64 -60
76 -53 6 3 7 1 3 -5 -8 -14 30 -36 46 -26 6 4 8 3 4 -4 -3 -6 14 -21 40 -36
53 -30 58 -31 49 -13 -4 6 0 4 8 -5 16 -20 79 -49 174 -78 58 -18 93 -22 237
-22 113 0 188 -5 224 -14 74 -19 190 -83 214 -117 11 -15 22 -26 25 -23 3 2
41 -30 85 -72 74 -71 101 -93 190 -147 46 -28 46 -57 -1 -141 -84 -150 -216
-253 -234 -183 -5 17 -11 20 -29 15 -13 -3 -33 -6 -45 -6 -13 0 -23 -4 -23
-10 0 -5 7 -10 15 -10 8 0 15 -4 15 -10 0 -23 -46 -31 -178 -28 -124 3 -141 1
-177 -18 -51 -28 -66 -45 -105 -122 -35 -69 -34 -92 2 -46 41 51 52 56 137 60
98 4 175 -11 345 -66 186 -61 265 -112 252 -163 -7 -29 -86 -67 -154 -75 -39
-4 -47 -1 -80 30 -46 44 -122 75 -186 77 -26 1 -52 3 -56 6 -5 3 -44 0 -87 -6
-170 -24 -240 -60 -227 -116 11 -49 26 -56 109 -54 239 5 583 -100 749 -228
117 -91 142 -137 95 -173 -35 -27 -126 -47 -183 -41 -41 5 -50 11 -84 57 -58
77 -110 109 -201 122 -106 16 -285 10 -425 -15 -156 -28 -285 -28 -346 0 -83
38 -147 119 -154 197 -2 20 -8 37 -12 37 -5 -1 -44 -9 -88 -19 -94 -22 -156
-18 -255 18 -96 35 -173 75 -256 135 -171 122 -240 165 -303 187 -76 27 -150
31 -190 10 -24 -12 -29 -23 -40 -93 -17 -112 -60 -193 -130 -249 -110 -86
-252 -143 -354 -144 -44 0 -51 -10 -68 -93 -21 -103 -77 -206 -145 -266 -47
-41 -74 -51 -136 -51 -66 0 -116 22 -130 57 -16 40 -5 141 19 172 33 45 65 58
108 42 37 -13 38 -13 61 15 20 25 73 124 73 137 0 2 -24 8 -52 11 -29 4 -72
16 -96 26 -23 11 -48 17 -55 14 -7 -3 -32 -37 -57 -76 -53 -84 -150 -162 -270
-218 -150 -69 -318 -48 -369 48 -26 48 -5 150 41 199 41 43 127 38 186 -12 17
-14 38 -25 49 -25 20 0 142 79 198 129 19 16 45 52 59 80 34 66 53 76 118 61
27 -7 71 -10 96 -7 111 12 165 171 81 241 -44 37 -74 34 -118 -14 -34 -37 -52
-44 -108 -41 -30 1 -55 29 -48 52 7 22 -10 26 -19 4 -17 -45 -120 18 -132 81
-5 27 -11 34 -29 34 -42 0 -76 59 -81 139 -2 37 2 64 12 78 8 13 17 46 20 75
3 29 8 56 11 61 10 17 50 5 76 -22 36 -39 120 -80 179 -86 63 -8 102 10 163
76 144 153 289 297 323 319 20 14 39 27 42 30 15 16 145 80 161 80 5 0 8 4 5
9 -4 5 2 8 11 7 10 -2 29 1 42 6 37 13 233 13 259 -1 12 -6 28 -11 35 -10 15
3 61 -8 110 -27 21 -8 43 -12 48 -9 5 4 9 1 9 -6 0 -10 3 -10 12 -1 14 14 42
16 33 3 -3 -6 2 -14 12 -19 22 -12 63 2 63 20 0 10 -2 10 -8 1 -10 -15 -61
-12 -55 4 3 7 8 11 13 8 4 -2 17 6 29 19 15 16 19 26 12 31 -6 3 -8 11 -5 17
5 7 1 9 -9 5 -11 -4 -21 1 -28 16 -12 21 -11 21 6 7 17 -14 18 -13 13 7 -4 14
-1 24 8 27 8 3 14 -1 14 -8 0 -8 3 -16 8 -19 4 -2 1 -2 -6 0 -8 1 -12 -3 -9
-9 2 -7 10 -12 16 -10 14 3 14 -15 0 -20 -7 -2 -4 -10 7 -18 11 -9 15 -10 10
-2 -4 7 -2 12 6 12 7 0 24 3 38 6 19 4 22 3 10 -5 -12 -8 -9 -12 18 -22 30
-10 31 -12 15 -25 -15 -11 -16 -13 -2 -14 10 0 15 -10 15 -31 0 -28 -1 -29
-12 -14 -8 10 -11 22 -8 26 5 9 -10 13 -31 10 -5 -1 1 8 15 20 14 12 18 19 9
16 -9 -3 -21 -1 -26 4 -5 5 -9 -2 -8 -19 0 -15 6 -26 13 -24 7 1 12 -5 12 -13
0 -8 -5 -15 -10 -15 -7 0 -7 -7 1 -21 7 -15 14 -18 21 -11 6 6 16 8 23 5 8 -2
19 5 25 17 8 16 15 19 24 11 7 -6 17 -7 21 -3 5 4 5 -1 2 -10 -4 -11 -1 -18 6
-19 7 0 2 -4 -10 -9 -13 -5 -23 -15 -22 -22 0 -10 2 -10 6 0 2 6 9 12 14 12 6
0 8 -4 4 -10 -3 -5 7 -3 22 5 34 18 38 14 19 -22 -8 -15 -15 -22 -16 -15 0 6
-5 12 -11 12 -8 0 -8 -5 1 -15 17 -21 29 -19 52 10 17 22 46 27 33 5 -3 -5 -1
-11 4 -15 6 -3 8 3 6 15 -7 37 -16 42 -38 23 -11 -10 -17 -12 -13 -6 4 7 2 22
-4 33 -7 13 -7 20 0 20 5 0 10 -5 10 -11 0 -13 19 6 43 43 9 16 22 27 28 25
14 -3 21 31 8 39 -12 7 -12 24 0 24 10 0 27 -39 23 -52 -1 -5 5 -8 13 -8 18 0
20 -26 3 -33 -10 -4 -10 -6 -1 -6 6 -1 15 4 18 9 3 6 10 10 14 10 12 0 8 -33
-4 -42 -5 -4 -6 -10 -2 -15 9 -9 28 17 21 29 -3 4 2 5 10 2 18 -7 21 -20 6
-29 -5 -3 -10 -16 -9 -28 1 -20 2 -20 8 3 8 30 36 38 45 14 8 -20 -16 -49 -41
-49 -9 0 -18 -6 -20 -12 -3 -7 0 -13 7 -13 6 0 8 5 5 10 -3 6 -1 10 4 10 6 0
11 -6 11 -12 0 -7 5 -5 11 5 10 17 12 17 25 -9 13 -24 12 -30 -2 -52 -13 -19
-18 -22 -25 -11 -6 10 -8 8 -7 -7 3 -33 35 -9 64 48 17 33 29 46 39 42 8 -4
15 -10 15 -16 0 -5 5 -6 10 -3 6 4 9 1 8 -6 -2 -7 3 -14 10 -15 6 -1 15 -3 20
-4 4 -1 10 -2 13 -2 3 1 6 -5 6 -12 0 -11 -8 -9 -33 4 -18 10 -35 16 -39 12
-4 -4 -5 -2 -3 5 2 6 -1 11 -7 11 -5 1 -9 -9 -7 -21 2 -18 0 -19 -8 -7 -9 14
-14 7 -11 -13 1 -5 -3 -6 -9 -2 -5 3 -10 -1 -10 -9 0 -9 5 -16 10 -16 7 0 7
-7 0 -21 -7 -11 -9 -23 -6 -27 3 -3 6 0 6 7 0 7 5 9 10 6 6 -4 8 -10 5 -15 -6
-9 29 -20 68 -20 16 0 27 5 27 14 0 15 28 42 35 34 8 -8 -6 -38 -15 -33 -5 3
-7 -3 -6 -12 2 -12 12 -18 29 -19 15 -1 24 3 21 7 -2 4 -12 6 -22 3 -16 -5
-16 -5 0 5 10 7 14 19 11 32 -3 12 -1 24 5 28 7 4 8 12 2 21 -6 8 -10 10 -10
4 0 -7 -12 -19 -26 -29 -19 -12 -29 -14 -39 -5 -8 7 -19 9 -25 5 -6 -4 -10 4
-10 20 0 17 4 25 13 22 6 -2 11 -10 9 -17 -2 -10 0 -11 10 -3 7 6 21 9 31 8
13 -3 16 1 12 16 -4 11 -2 19 4 19 6 0 11 -4 11 -9 0 -4 10 -8 23 -7 15 1 22
-4 21 -16 -1 -10 4 -14 12 -11 17 6 18 -9 2 -26 -11 -11 -10 -12 2 -6 8 5 21
17 28 27 15 20 37 14 28 -7 -3 -8 2 -19 10 -25 8 -7 14 -9 14 -4 0 5 4 3 8 -4
5 -7 16 -10 25 -6 9 3 14 10 11 15 -3 5 -11 6 -17 2 -7 -4 -5 4 4 17 15 23 67
42 53 19 -3 -6 0 -15 7 -21 11 -7 9 -8 -6 -6 -11 2 -24 8 -28 13 -4 6 -5 -8
-2 -30 4 -31 3 -37 -6 -28 -10 10 -15 8 -25 -5 -13 -16 -13 -16 -14 2 0 14 -3
16 -13 7 -8 -6 -18 -7 -22 -3 -5 4 -6 0 -2 -9 4 -13 1 -16 -14 -12 -10 3 -16
9 -13 14 3 5 0 9 -5 9 -6 0 -11 -6 -11 -12 0 -9 -4 -8 -11 2 -9 13 -10 13 -6
0 2 -8 16 -19 31 -25 22 -8 30 -6 40 7 9 13 16 14 24 6 8 -8 15 -8 27 2 8 7
15 9 15 5 0 -4 7 -2 15 5 8 6 20 8 26 4 9 -5 10 -1 7 14 -8 29 0 28 12 0 5
-13 9 -17 9 -8 1 8 12 20 26 27 15 6 22 7 19 1 -9 -15 26 6 52 30 28 27 60 80
68 115 9 37 -13 36 -73 -3 -80 -51 -116 -61 -209 -61 -152 1 -224 33 -375 165
-73 63 -91 90 -102 149 -8 42 -22 56 -32 32 -3 -10 1 -30 11 -45 19 -34 20
-47 3 -47 -9 0 -12 9 -9 26 3 14 2 23 -2 20 -4 -4 -8 -16 -11 -28 -9 -46 -28
-53 -63 -21 -12 11 -24 20 -28 20 -4 0 -25 15 -48 34 -72 58 -184 125 -243
144 -32 11 -60 17 -63 14 -3 -2 0 -7 6 -9 21 -7 49 -31 43 -37 -3 -3 -21 -1
-39 4 -55 16 -258 40 -335 40 -38 0 -128 -7 -200 -16 -213 -25 -255 -28 -255
-17 0 14 76 63 98 63 10 0 27 7 38 15 17 15 13 15 -56 9 -41 -3 -109 -15 -150
-26 -41 -11 -90 -21 -108 -24 -18 -2 -36 -5 -40 -5 -4 -1 -20 -1 -36 0 -29 1
-29 1 -11 21 40 44 378 188 505 214 161 34 415 42 580 19 25 -4 59 -7 77 -7
17 -1 29 -4 27 -7 -2 -4 13 -10 34 -14 20 -4 42 -10 47 -15 14 -10 65 -19 65
-10 0 4 -9 15 -20 25 -19 18 -40 72 -40 108 0 24 35 22 91 -4z m402 -21 c-2
-4 -10 -2 -17 5 -8 6 -12 15 -9 19 2 4 10 2 17 -5 8 -6 12 -15 9 -19z m114
-135 c-4 -3 -3 -11 2 -17 6 -7 1 -11 -15 -12 -28 -2 -30 4 -6 22 18 14 30 19
19 7z m363 -87 c0 -2 -8 -10 -17 -17 -16 -13 -17 -12 -4 4 13 16 21 21 21 13z
m-275 -26 c3 -5 1 -10 -4 -10 -6 0 -11 5 -11 10 0 6 2 10 4 10 3 0 8 -4 11
-10z m63 -26 c-12 -12 -17 -13 -23 -3 -5 8 -4 10 3 5 11 -7 17 6 12 29 -1 6 4
4 11 -3 11 -10 10 -15 -3 -28z m43 12 c-6 -7 -8 -16 -4 -20 4 -3 8 -14 9 -22
1 -9 -1 -13 -4 -9 -4 4 -7 10 -7 13 0 4 -4 12 -8 19 -4 6 -3 14 3 18 6 4 7 11
4 17 -4 7 -2 8 5 4 8 -6 9 -12 2 -20z m-1130 -109 c-10 -9 -11 -8 -5 6 3 10 9
15 12 12 3 -3 0 -11 -7 -18z m-27 4 c4 -5 -1 -8 -9 -7 -21 3 -31 16 -12 16 9
0 18 -4 21 -9z m94 -3 c15 -15 15 -28 0 -28 -6 0 -8 3 -5 7 4 3 -1 12 -11 19
-9 7 -12 14 -6 14 5 0 15 -5 22 -12z m57 -12 c7 3 16 1 19 -5 4 -6 14 -7 23
-4 12 5 14 3 8 -7 -5 -8 -3 -11 6 -8 8 3 13 10 12 16 -1 5 5 9 15 7 9 -2 23
-4 30 -4 7 -1 10 -6 7 -12 -4 -6 -1 -10 6 -8 27 3 35 -1 35 -20 0 -12 -5 -17
-14 -14 -7 3 -10 13 -7 22 5 13 4 14 -6 4 -15 -15 -43 -17 -34 -3 7 11 -15 13
-39 4 -14 -5 -14 -9 -4 -22 9 -11 4 -10 -14 3 -15 11 -28 27 -28 35 0 12 -3
11 -11 -3 -8 -14 -14 -15 -24 -7 -8 6 -11 19 -8 28 4 9 8 11 10 5 3 -7 10 -10
18 -7z m-191 -37 c-10 -16 -23 -9 -21 10 1 15 4 17 14 9 7 -5 10 -14 7 -19z
m76 16 c0 -8 -2 -15 -4 -15 -2 0 -6 7 -10 15 -3 8 -1 15 4 15 6 0 10 -7 10
-15z m28 -10 c-3 -3 -9 2 -12 12 -6 14 -5 15 5 6 7 -7 10 -15 7 -18z m-235
-14 c-4 -3 -11 -10 -15 -15 -4 -4 -6 1 -5 12 1 12 6 18 15 15 7 -3 10 -9 5
-12z m144 -23 c2 -17 0 -19 -7 -8 -5 8 -6 18 -4 22 8 12 10 10 11 -14z m407 9
c4 4 4 -1 0 -12 -6 -14 -4 -17 9 -12 9 3 20 0 24 -7 5 -7 20 -21 35 -30 l26
-17 -25 -25 c-14 -14 -22 -28 -18 -32 4 -4 15 3 25 16 19 23 40 29 40 11 0 -5
-4 -8 -9 -5 -4 3 -16 -3 -26 -14 -23 -25 -32 -25 -46 1 -7 13 -7 19 -1 15 6
-3 13 -2 17 4 3 5 1 10 -4 10 -6 0 -14 0 -18 1 -5 0 -28 11 -53 25 -25 14 -37
19 -28 11 18 -14 14 -27 -7 -27 -13 0 -17 37 -4 45 5 4 7 11 4 16 -3 5 1 6 10
2 13 -5 14 -7 3 -14 -11 -7 -10 -9 1 -9 8 0 22 -7 32 -16 13 -12 19 -12 25 -3
4 8 3 10 -4 5 -8 -4 -17 4 -24 21 -17 43 -19 56 -4 44 7 -6 16 -8 20 -4z
m-204 -1 c0 -2 -8 -10 -17 -17 -16 -13 -17 -12 -4 4 13 16 21 21 21 13z m37
-41 c0 -8 -5 -11 -10 -8 -6 4 -8 -2 -5 -15 4 -12 2 -24 -3 -27 -4 -3 -6 -12
-3 -20 4 -8 10 -13 14 -10 5 3 12 0 16 -6 4 -7 3 -9 -4 -5 -6 3 -13 2 -17 -4
-4 -6 -11 -8 -16 -5 -5 4 -9 2 -9 -4 0 -5 -7 -8 -15 -7 -21 3 -19 21 3 21 9 0
16 6 14 14 -1 7 3 19 9 27 11 13 5 19 -16 14 -5 -1 1 10 14 24 29 30 28 30 28
11z m-150 -1 c-3 -3 -12 -4 -19 -1 -8 3 -5 6 6 6 11 1 17 -2 13 -5z m43 -4 c8
-5 12 -11 9 -14 -3 -3 -14 1 -25 9 -21 16 -8 20 16 5z m-225 -10 c3 -5 1 -10
-4 -10 -6 0 -11 5 -11 10 0 6 2 10 4 10 3 0 8 -4 11 -10z m345 -35 c0 -8 -4
-15 -10 -15 -5 0 -7 7 -4 15 4 8 8 15 10 15 2 0 4 -7 4 -15z m378 -15 c13 -21
3 -27 -14 -10 -7 7 -11 6 -11 -5 0 -8 4 -15 9 -15 5 0 6 -5 3 -10 -4 -6 -11
-8 -16 -5 -5 4 -9 -1 -9 -9 0 -9 -5 -16 -11 -16 -5 0 -8 -4 -4 -9 3 -5 1 -12
-5 -16 -5 -3 -10 1 -10 9 0 10 -6 13 -17 9 -16 -6 -16 -5 -5 10 12 14 12 19
-2 33 -9 8 -13 21 -9 27 4 6 9 2 14 -11 9 -23 24 -29 33 -13 4 5 0 12 -6 14
-8 4 -7 6 3 6 9 1 19 8 23 16 7 20 19 19 34 -5z m-338 -15 c0 -1 -6 -8 -14
-15 -12 -9 -15 -8 -13 8 0 12 6 18 14 15 7 -3 13 -6 13 -8z m233 -17 c6 -19
-3 -38 -20 -38 -8 0 -12 4 -8 9 3 5 1 12 -4 16 -6 3 -8 -6 -5 -22 4 -22 3 -25
-7 -16 -10 10 -17 9 -33 -4 -12 -10 -16 -11 -9 -4 6 7 9 20 5 29 -4 11 -1 14
9 10 9 -4 20 2 27 13 14 22 38 25 45 7z m-113 -72 c0 -3 -4 -8 -10 -11 -5 -3
-10 -1 -10 4 0 6 5 11 10 11 6 0 10 -2 10 -4z m128 -14 c6 -18 -15 -14 -22 4
-4 10 -1 14 6 12 6 -2 14 -10 16 -16z m283 -37 c12 8 11 -16 -1 -35 -9 -13
-12 -12 -26 5 -9 12 -11 21 -4 23 5 2 11 11 11 20 1 15 2 15 6 -1 2 -9 9 -15
14 -12z m474 -86 c-5 -16 -4 -19 5 -14 8 5 11 4 6 -3 -4 -6 -13 -9 -21 -6 -11
5 -12 11 -4 25 13 26 22 24 14 -2z m-438 -61 c-3 -7 -5 -2 -5 12 0 14 2 19 5
13 2 -7 2 -19 0 -25z m393 22 c0 -5 -4 -10 -9 -10 -6 0 -13 5 -16 10 -3 6 1
10 9 10 9 0 16 -4 16 -10z m-333 -35 c0 -8 -4 -12 -9 -9 -5 3 -6 10 -3 15 9
13 12 11 12 -6z m-639 -648 c2 -8 -1 -18 -7 -21 -11 -7 -43 22 -36 34 8 13 40
4 43 -13z m85 -50 c-5 -8 -8 -8 -10 0 -2 6 -14 9 -26 7 -21 -4 -21 -4 -2 4 24
11 47 4 38 -11z m35 -31 c-7 -8 -15 -12 -17 -11 -5 6 10 25 20 25 5 0 4 -6 -3
-14z m32 -56 c-33 -28 -38 -25 -9 7 17 19 19 25 7 20 -12 -4 -15 -2 -11 9 5
14 7 14 21 0 14 -14 13 -17 -8 -36z m10 -24 c0 -2 -8 -10 -17 -17 -16 -13 -17
-12 -4 4 13 16 21 21 21 13z m101 -13 c13 -16 12 -17 -3 -4 -17 13 -22 21 -14
21 2 0 10 -8 17 -17z m-66 -12 c3 -5 0 -13 -6 -17 -7 -4 -9 -3 -5 4 3 5 0 13
-6 15 -9 4 -10 6 -1 6 6 1 14 -3 18 -8z m75 -17 c0 -8 -19 -13 -24 -6 -3 5 1
9 9 9 8 0 15 -2 15 -3z m65 -23 c3 -5 0 -13 -6 -17 -7 -4 -9 -3 -5 4 3 5 0 13
-6 15 -9 4 -10 6 -1 6 6 1 14 -3 18 -8z"/>
<path d="M2424 3132 c3 -5 0 -12 -6 -15 -7 -2 -10 -7 -7 -11 3 -4 12 0 18 8 9
11 9 16 0 22 -7 4 -9 3 -5 -4z"/>
<path d="M2735 3120 c-3 -5 -12 -7 -19 -4 -13 5 -31 -24 -21 -34 3 -3 5 0 5 6
0 7 7 12 16 12 8 0 13 -4 9 -9 -3 -5 2 -17 11 -25 18 -19 34 -13 33 12 0 11
-3 12 -6 5 -8 -21 -20 -15 -19 10 0 12 8 25 16 29 13 5 12 7 -2 7 -9 1 -19 -3
-23 -9z"/>
<path d="M2416 3081 c-3 -5 1 -11 9 -15 8 -3 15 -1 15 4 0 13 -18 22 -24 11z"/>
<path d="M2706 3035 c4 -8 8 -15 10 -15 2 0 4 7 4 15 0 8 -4 15 -10 15 -5 0
-7 -7 -4 -15z"/>
<path d="M2720 3012 c-7 -15 -17 -36 -23 -47 -9 -17 -8 -18 5 -8 8 7 19 9 23
5 5 -4 5 -1 1 6 -4 7 -1 12 9 12 8 0 20 -10 25 -22 6 -17 9 -18 9 -6 1 9 8 18
16 20 14 3 14 5 0 25 -9 13 -24 27 -34 32 -15 8 -21 5 -31 -17z m25 -11 c-3
-6 -11 -11 -16 -11 -5 0 -4 6 3 14 14 16 24 13 13 -3z"/>
<path d="M4033 2978 c-21 -20 -23 -21 -41 -5 -39 35 -67 9 -31 -29 21 -22 21
-25 6 -42 -21 -23 -22 -41 -2 -48 9 -4 23 4 35 17 l20 24 18 -24 c14 -17 25
-22 40 -16 30 9 28 39 -4 53 l-25 12 21 30 c34 48 4 70 -37 28z"/>
<path d="M3156 2911 c-4 -5 -3 -16 0 -25 4 -11 0 -16 -12 -16 -17 -1 -17 -2
-2 -10 9 -6 24 -7 33 -4 15 6 15 8 -1 25 -9 10 -13 23 -9 28 3 6 4 11 1 11 -3
0 -7 -4 -10 -9z"/>
<path d="M3086 2855 c-3 -8 -1 -15 4 -15 6 0 10 7 10 15 0 8 -2 15 -4 15 -2 0
-6 -7 -10 -15z"/>
<path d="M2542 3217 c10 -8 14 -18 10 -22 -4 -5 -1 -5 6 -1 17 10 15 14 -10
26 -21 10 -21 10 -6 -3z"/>
<path d="M2330 2225 c0 -2 7 -8 15 -15 12 -10 15 -10 15 2 0 8 -7 15 -15 15
-8 0 -15 -1 -15 -2z"/>
</g>
</svg>
